<svg width="51" height="50" viewBox="0 0 51 50" fill="none" xmlns="http://www.w3.org/2000/svg">
<path d="M25.5001 23.9582C24.1187 23.9582 22.794 23.4094 21.8172 22.4327C20.8405 21.4559 20.2917 20.1312 20.2917 18.7498C20.2917 17.3685 20.8405 16.0437 21.8172 15.067C22.794 14.0902 24.1187 13.5415 25.5001 13.5415C26.8814 13.5415 28.2062 14.0902 29.1829 15.067C30.1597 16.0437 30.7084 17.3685 30.7084 18.7498C30.7084 19.4338 30.5737 20.1111 30.312 20.743C30.0502 21.3749 29.6666 21.949 29.1829 22.4327C28.6993 22.9163 28.1251 23.3 27.4932 23.5617C26.8613 23.8235 26.1841 23.9582 25.5001 23.9582ZM25.5001 4.1665C21.6323 4.1665 17.923 5.70296 15.1881 8.43786C12.4532 11.1728 10.9167 14.8821 10.9167 18.7498C10.9167 29.6873 25.5001 45.8332 25.5001 45.8332C25.5001 45.8332 40.0834 29.6873 40.0834 18.7498C40.0834 14.8821 38.547 11.1728 35.8121 8.43786C33.0772 5.70296 29.3678 4.1665 25.5001 4.1665Z" fill="white"/>
</svg>
