<svg width="77" height="77" viewBox="0 0 77 77" fill="none" xmlns="http://www.w3.org/2000/svg">
<path d="M61.1188 15.7529C58.1774 12.7818 54.6739 10.426 50.8125 8.82311C46.9511 7.22017 42.8092 6.40213 38.6284 6.4167C21.1109 6.4167 6.83382 20.6938 6.83382 38.2113C6.83382 43.8259 8.30965 49.28 11.0688 54.0925L6.57715 70.5834L23.4209 66.1559C28.073 68.6904 33.3026 70.0379 38.6284 70.0379C56.1459 70.0379 70.423 55.7609 70.423 38.2434C70.423 29.7413 67.1184 21.7525 61.1188 15.7529ZM38.6284 64.6479C33.8801 64.6479 29.228 63.3646 25.1534 60.9584L24.1909 60.3809L14.1809 63.0117L16.8438 53.2584L16.2021 52.2638C13.5641 48.0511 12.1633 43.1818 12.1596 38.2113C12.1596 23.6454 24.0305 11.7746 38.5963 11.7746C45.6546 11.7746 52.2959 14.5338 57.2688 19.5388C59.7312 21.9898 61.6825 24.9052 63.0098 28.116C64.3371 31.3268 65.0138 34.7691 65.0009 38.2434C65.0651 52.8092 53.1942 64.6479 38.6284 64.6479ZM53.1301 44.8846C52.328 44.4996 48.4138 42.5746 47.708 42.2859C46.9701 42.0292 46.4567 41.9009 45.9113 42.6709C45.3659 43.4729 43.858 45.2696 43.4088 45.7829C42.9596 46.3284 42.4784 46.3925 41.6763 45.9754C40.8742 45.5904 38.3076 44.7242 35.2917 42.0292C32.9176 39.9117 31.3455 37.3129 30.8642 36.5109C30.4151 35.7088 30.8001 35.2917 31.2171 34.8746C31.5701 34.5217 32.0192 33.9442 32.4042 33.495C32.7892 33.0459 32.9496 32.6929 33.2063 32.1796C33.463 31.6342 33.3346 31.185 33.1421 30.8C32.9496 30.415 31.3455 26.5009 30.7038 24.8967C30.0621 23.3567 29.3884 23.5492 28.9072 23.5171H27.3671C26.8217 23.5171 25.9876 23.7096 25.2496 24.5117C24.5438 25.3138 22.4905 27.2388 22.4905 31.1529C22.4905 35.0671 25.3459 38.8529 25.7309 39.3663C26.1159 39.9117 31.3455 47.9325 39.3022 51.3654C41.1951 52.1996 42.6709 52.6809 43.8259 53.0338C45.7188 53.6434 47.4513 53.5471 48.8309 53.3546C50.3709 53.13 53.5471 51.4296 54.1888 49.5688C54.8626 47.7079 54.8626 46.1359 54.638 45.7829C54.4134 45.43 53.9321 45.2696 53.1301 44.8846Z" fill="#99762C"/>
</svg>
