<svg width="77" height="77" viewBox="0 0 77 77" fill="none" xmlns="http://www.w3.org/2000/svg">
<path d="M25.0251 6.4165H51.9751C62.2417 6.4165 70.5834 14.7582 70.5834 25.0248V51.9748C70.5834 56.9101 68.6229 61.6432 65.1332 65.1329C61.6434 68.6227 56.9103 70.5832 51.9751 70.5832H25.0251C14.7584 70.5832 6.41675 62.2415 6.41675 51.9748V25.0248C6.41675 20.0896 8.37726 15.3565 11.867 11.8668C15.3567 8.37702 20.0898 6.4165 25.0251 6.4165ZM24.3834 12.8332C21.3202 12.8332 18.3824 14.05 16.2163 16.2161C14.0503 18.3821 12.8334 21.3199 12.8334 24.3832V52.6165C12.8334 59.0011 17.9988 64.1665 24.3834 64.1665H52.6167C55.68 64.1665 58.6178 62.9496 60.7838 60.7836C62.9499 58.6175 64.1667 55.6798 64.1667 52.6165V24.3832C64.1667 17.9986 59.0013 12.8332 52.6167 12.8332H24.3834ZM55.3438 17.6457C56.4075 17.6457 57.4275 18.0682 58.1796 18.8203C58.9317 19.5724 59.3542 20.5925 59.3542 21.6561C59.3542 22.7197 58.9317 23.7398 58.1796 24.4919C57.4275 25.244 56.4075 25.6665 55.3438 25.6665C54.2802 25.6665 53.2601 25.244 52.508 24.4919C51.7559 23.7398 51.3334 22.7197 51.3334 21.6561C51.3334 20.5925 51.7559 19.5724 52.508 18.8203C53.2601 18.0682 54.2802 17.6457 55.3438 17.6457ZM38.5001 22.4582C42.7546 22.4582 46.8349 24.1483 49.8433 27.1567C52.8516 30.1651 54.5417 34.2453 54.5417 38.4998C54.5417 42.7544 52.8516 46.8346 49.8433 49.843C46.8349 52.8514 42.7546 54.5415 38.5001 54.5415C34.2456 54.5415 30.1653 52.8514 27.1569 49.843C24.1485 46.8346 22.4584 42.7544 22.4584 38.4998C22.4584 34.2453 24.1485 30.1651 27.1569 27.1567C30.1653 24.1483 34.2456 22.4582 38.5001 22.4582ZM38.5001 28.8748C35.9474 28.8748 33.4992 29.8889 31.6942 31.6939C29.8891 33.499 28.8751 35.9471 28.8751 38.4998C28.8751 41.0525 29.8891 43.5007 31.6942 45.3057C33.4992 47.1108 35.9474 48.1248 38.5001 48.1248C41.0528 48.1248 43.5009 47.1108 45.306 45.3057C47.111 43.5007 48.1251 41.0525 48.1251 38.4998C48.1251 35.9471 47.111 33.499 45.306 31.6939C43.5009 29.8889 41.0528 28.8748 38.5001 28.8748Z" fill="#99762C"/>
</svg>
